<?xml version="1.0" encoding="UTF-8"?>
<svg version="1.1" xmlns="http://www.w3.org/2000/svg" width="108" height="111">
<path d="M0 0 C7.35910512 1.97204778 11.56685951 4.22443716 15.8125 10.8125 C17.66660573 15.78931012 18.07757078 19.52240355 15.96875 24.37109375 C12.933297 29.50606841 9.78794975 32.38993258 4.19140625 34.4921875 C1.22490412 35.17961224 -1.10849722 34.88969316 -4 34 C-3.79375 33.401875 -3.5875 32.80375 -3.375 32.1875 C-2.69328085 29.71549154 -2.69328085 29.71549154 -5 27 C-4.67 26.34 -4.34 25.68 -4 25 C-1.4375 24.375 -1.4375 24.375 1 24 C-0.98 24 -2.96 24 -5 24 C-5.33 23.01 -5.66 22.02 -6 21 C-4.02 20.34 -2.04 19.68 0 19 C-0.75150023 15.72226496 -0.75150023 15.72226496 -4 14 C-3.7834375 13.1646875 -3.7834375 13.1646875 -3.5625 12.3125 C-3.17422214 10.71624657 -2.82217916 9.11089581 -2.5 7.5 C-1.25 1.25 -1.25 1.25 0 0 Z M10 11 C10 11.99 10 12.98 10 14 C10.66 13.67 11.32 13.34 12 13 C11.34 12.34 10.68 11.68 10 11 Z M4 13 C4.020625 13.9075 4.04125 14.815 4.0625 15.75 C4.0110245 18.42672588 3.7784983 20.46988052 3 23 C3.99 22.34 4.98 21.68 6 21 C6.25015873 17.41642759 6.25015873 17.41642759 6 14 C5.34 13.67 4.68 13.34 4 13 Z M11 18 C12 20 12 20 12 20 Z M10 21 C9.67 22.32 9.34 23.64 9 25 C9.66 24.67 10.32 24.34 11 24 C10.67 23.01 10.34 22.02 10 21 Z " fill="#2AA397" transform="translate(33,36)"/>
<path d="M0 0 C0 1.32 0 2.64 0 4 C0.66 4.33 1.32 4.66 2 5 C2.59355614 7.64860427 2.74209269 10.29197322 3 13 C1.02 13.99 1.02 13.99 -1 15 C-0.33131686 18.11332248 -0.33131686 18.11332248 2.0625 19.1875 C2.701875 19.455625 3.34125 19.72375 4 20 C4 20.99 4 21.98 4 23 C3.34 23.33 2.68 23.66 2 24 C2.66 24.99 3.32 25.98 4 27 C3.125 30.1875 3.125 30.1875 2 33 C-1.85399989 33.84787998 -4.35033765 34.2208852 -8.125 32.9375 C-13.4005218 29.38225705 -16.62857876 25.23373293 -18 19 C-18.57174187 14.61957767 -18.40878198 11.80184158 -16.375 7.8125 C-11.66353065 2.2331284 -7.6431199 -1.85913727 0 0 Z M-7 5 C-7.33 5.66 -7.66 6.32 -8 7 C-7.01 6.67 -6.02 6.34 -5 6 C-5.66 5.67 -6.32 5.34 -7 5 Z M-10 7 C-9.67 7.66 -9.34 8.32 -9 9 C-8.67 8.34 -8.34 7.68 -8 7 C-8.66 7 -9.32 7 -10 7 Z M-11 9 C-10 11 -10 11 -10 11 Z M-4 9 C-5.64555699 10.22809091 -5.64555699 10.22809091 -7 12 C-6.77242269 14.16299211 -6.77242269 14.16299211 -6 16 C-4.39092892 13.62387135 -4.39092892 13.62387135 -3 11 C-3.33 10.34 -3.66 9.68 -4 9 Z M-13 13 C-13 15.64 -13 18.28 -13 21 C-12.01 21.495 -12.01 21.495 -11 22 C-11 19.03 -11 16.06 -11 13 C-11.66 13 -12.32 13 -13 13 Z M-7 17 C-6 20 -6 20 -6 20 Z M-6 20 C-5.67 20.99 -5.34 21.98 -5 23 C-4.34 22.67 -3.68 22.34 -3 22 C-3.99 21.34 -4.98 20.68 -6 20 Z M-11 22 C-10 24 -10 24 -10 24 Z M-8 26 C-7.01 26.99 -6.02 27.98 -5 29 C-4.34 28.67 -3.68 28.34 -3 28 C-5.475 27.01 -5.475 27.01 -8 26 Z " fill="#33BFBB" transform="translate(70,53)"/>
<path d="M0 0 C3.16115776 1.36983503 3.9927092 1.9890638 6 5 C6.11939922 6.53830627 6.17525489 8.08211555 6.1875 9.625 C6.58940493 15.13109754 8.81010308 17.9331689 12.50390625 21.89453125 C14.34809201 24.48987361 14.44869117 25.87979128 14 29 C13.34 29.66 12.68 30.32 12 31 C12.020625 32.11375 12.04125 33.2275 12.0625 34.375 C12 38 12 38 10.4921875 39.7265625 C8.01522087 43.5003703 8.9179134 47.81337525 9.20507812 52.15625 C9.34078006 55.70435919 9.31498234 57.57667979 7.16015625 60.47265625 C5 62 5 62 2.375 62.4375 C1.59125 62.293125 0.8075 62.14875 0 62 C-0.66 61.01 -1.32 60.02 -2 59 C-1.67 58.34 -1.34 57.68 -1 57 C0.65 57 2.3 57 4 57 C3.85691406 56.09507813 3.85691406 56.09507813 3.7109375 55.171875 C3.60007812 54.37265625 3.48921875 53.5734375 3.375 52.75 C3.25898438 51.96109375 3.14296875 51.1721875 3.0234375 50.359375 C2.99680605 47.67847541 3.63407916 46.27305911 5 44 C4.360625 43.731875 3.72125 43.46375 3.0625 43.1875 C1 42 1 42 0 39 C0.33 38.34 0.66 37.68 1 37 C2.65 37 4.3 37 6 37 C5.773125 36.113125 5.54625 35.22625 5.3125 34.3125 C4.94548054 30.42209376 5.73118159 29.08559304 8 26 C7.21625 25.113125 6.4325 24.22625 5.625 23.3125 C1.67528386 18.51482221 0.78005779 14.23699408 0.22265625 8.15625 C0.02122575 5.84565772 0.02122575 5.84565772 -0.625 3 C-0.74875 2.34 -0.8725 1.68 -1 1 C-0.67 0.67 -0.34 0.34 0 0 Z " fill="#267E74" transform="translate(15,11)"/>
<path d="M0 0 C1.32 0.33 2.64 0.66 4 1 C3.19681967 8.1926597 2.12601402 13.41108037 -2.09765625 19.32421875 C-3.31646266 21.11658149 -3.31646266 21.11658149 -2.1875 23.75 C-1.795625 24.4925 -1.40375 25.235 -1 26 C-1.875 28.3125 -1.875 28.3125 -3 30 C-1.68 30 -0.36 30 1 30 C1 31.65 1 33.3 1 35 C-0.485 35.495 -0.485 35.495 -2 36 C-1.649375 36.495 -1.29875 36.99 -0.9375 37.5 C0.46011601 41.22697603 -0.34967141 44.09802848 -1 48 C0.65 48 2.3 48 4 48 C4 49.32 4 50.64 4 52 C-2.30818278 52.35706695 -2.30818278 52.35706695 -4.9375 51 C-6.39217695 48.26178456 -6.13538785 45.98678939 -5.91015625 42.9375 C-5.84852116 40.66869144 -5.84852116 40.66869144 -8 38 C-8.09901905 34.65918324 -7.93146403 31.36926978 -7.77734375 28.03125 C-7.69800719 25.0006537 -7.69800719 25.0006537 -9.50390625 23.25 C-9.99761719 22.8375 -10.49132812 22.425 -11 22 C-11 19.5 -11 19.5 -10 17 C-9.21625 16.62875 -8.4325 16.2575 -7.625 15.875 C-3.83326609 13.16661863 -3.64441108 10.01498064 -2.67578125 5.59375 C-2 3 -2 3 0 0 Z " fill="#3CD4D4" transform="translate(85,35)"/>
<path d="M0 0 C0.99 0.66 1.98 1.32 3 2 C3 3.32 3 4.64 3 6 C4.32 6.66 5.64 7.32 7 8 C7 8.99 7 9.98 7 11 C6.01 11.495 6.01 11.495 5 12 C5.99 13.485 5.99 13.485 7 15 C6.125 18.1875 6.125 18.1875 5 21 C1.05923635 21.866968 -1.39665883 22.20884887 -5.25 20.875 C-8.27008831 18.81584888 -9.53809402 17.32989694 -11 14 C-11 12.68 -11 11.36 -11 10 C-10.01 10 -9.02 10 -8 10 C-8.33 7.36 -8.66 4.72 -9 2 C-7.68 1.67 -6.36 1.34 -5 1 C-5 3.31 -5 5.62 -5 8 C-4.34 8 -3.68 8 -3 8 C-3.37125 7.13375 -3.37125 7.13375 -3.75 6.25 C-3.8325 5.5075 -3.915 4.765 -4 4 C-2.0625 1.75 -2.0625 1.75 0 0 Z M-3 8 C-2.67 8.99 -2.34 9.98 -2 11 C-1.34 10.67 -0.68 10.34 0 10 C-0.99 9.34 -1.98 8.68 -3 8 Z M-8 10 C-7 12 -7 12 -7 12 Z M-5 14 C-4.01 14.99 -3.02 15.98 -2 17 C-1.34 16.67 -0.68 16.34 0 16 C-2.475 15.01 -2.475 15.01 -5 14 Z " fill="#2EBFBB" transform="translate(67,65)"/>
<path d="M0 0 C1.43931117 0.45261358 2.87638999 0.91232979 4.3125 1.375 C5.11300781 1.63023438 5.91351563 1.88546875 6.73828125 2.1484375 C9 3 9 3 12 5 C11.67 5.66 11.34 6.32 11 7 C9.02 6.34 7.04 5.68 5 5 C4.34 6.32 3.68 7.64 3 9 C3.66 9 4.32 9 5 9 C5 9.66 5 10.32 5 11 C5.66 11 6.32 11 7 11 C6 14 6 14 5 16 C4.87625 16.804375 4.7525 17.60875 4.625 18.4375 C3.91827572 21.33506954 3.48870148 22.36947145 1 24 C-2.1875 24.1875 -2.1875 24.1875 -5 24 C-5.33 23.01 -5.66 22.02 -6 21 C-4.02 20.34 -2.04 19.68 0 19 C-0.75150023 15.72226496 -0.75150023 15.72226496 -4 14 C-3.7834375 13.1646875 -3.7834375 13.1646875 -3.5625 12.3125 C-3.17422214 10.71624657 -2.82217916 9.11089581 -2.5 7.5 C-1.25 1.25 -1.25 1.25 0 0 Z " fill="#26998B" transform="translate(33,36)"/>
<path d="M0 0 C3.16115776 1.36983503 3.9927092 1.9890638 6 5 C6.11939922 6.53830627 6.17525489 8.08211555 6.1875 9.625 C6.58940493 15.13109754 8.81010308 17.9331689 12.50390625 21.89453125 C14 24 14 24 14.40234375 26.63671875 C14.26957031 27.41660156 14.13679688 28.19648437 14 29 C13.01 29.66 12.02 30.32 11 31 C10.67 28.03 10.34 25.06 10 22 C9.67 22.33 9.34 22.66 9 23 C8.34 23.66 7.68 24.32 7 25 C2.29496163 19.51078857 0.86993031 15.21742155 0.22265625 8.15625 C0.02122575 5.84565772 0.02122575 5.84565772 -0.625 3 C-0.74875 2.34 -0.8725 1.68 -1 1 C-0.67 0.67 -0.34 0.34 0 0 Z " fill="#2D7A70" transform="translate(15,11)"/>
<path d="M0 0 C5.75 1.875 5.75 1.875 8 3 C9.26229508 7.47540984 9.26229508 7.47540984 8 10 C8.66 10 9.32 10 10 10 C10.33 12.31 10.66 14.62 11 17 C9.02 17.99 9.02 17.99 7 19 C6.67 15.7 6.34 12.4 6 9 C5.67 11.31 5.34 13.62 5 16 C4.34 16 3.68 16 3 16 C0.875 9.25 0.875 9.25 2 7 C1.34 7 0.68 7 0 7 C0 6.34 0 5.68 0 5 C-0.66 5 -1.32 5 -2 5 C-1.34 3.35 -0.68 1.7 0 0 Z " fill="#1CB9AF" transform="translate(38,40)"/>
<path d="M0 0 C0.33 0.66 0.66 1.32 1 2 C2.65 1.67 4.3 1.34 6 1 C5.67 1.66 5.34 2.32 5 3 C4.34 3 3.68 3 3 3 C3 4.98 3 6.96 3 9 C2.01 9 1.02 9 0 9 C0.33 11.97 0.66 14.94 1 18 C0.34 18 -0.32 18 -1 18 C-0.34 20.31 0.32 22.62 1 25 C-3.03593605 21.50218875 -4.55932093 18.33847784 -5.2578125 13.046875 C-5.55306903 7.88972769 -4.30815347 5.11013007 -1 1 C-0.67 0.67 -0.34 0.34 0 0 Z " fill="#2EABA8" transform="translate(57,57)"/>
<path d="M0 0 C0.33 0 0.66 0 1 0 C1.04898438 0.88042969 1.09796875 1.76085938 1.1484375 2.66796875 C1.22320312 3.82941406 1.29796875 4.99085937 1.375 6.1875 C1.44460937 7.33605469 1.51421875 8.48460938 1.5859375 9.66796875 C1.97509574 12.79959117 2.6809851 15.15285809 4 18 C4.66 16.68 5.32 15.36 6 14 C7.10844919 17.32534757 6.84454356 19.62182575 6 23 C7.65 23 9.3 23 11 23 C11 24.32 11 25.64 11 27 C4.69181722 27.35706695 4.69181722 27.35706695 2.0625 26 C0.60782305 23.26178456 0.86461215 20.98678939 1.08984375 17.9375 C1.15147884 15.66869144 1.15147884 15.66869144 -1 13 C-1.23046875 10.37109375 -1.23046875 10.37109375 -1.1875 7.4375 C-1.18105469 6.46683594 -1.17460938 5.49617188 -1.16796875 4.49609375 C-1 2 -1 2 0 0 Z " fill="#45D2D2" transform="translate(78,60)"/>
<path d="M0 0 C0.99 0 1.98 0 3 0 C3.8353125 1.1446875 3.8353125 1.1446875 4.6875 2.3125 C7.7979523 5.92734997 10.49362967 6.57298273 15 8 C15 8.66 15 9.32 15 10 C6.33274336 10.44070796 6.33274336 10.44070796 2 7 C0 4 0 4 0 0 Z " fill="#2FC9C3" transform="translate(56,75)"/>
<path d="M0 0 C0.99 0.66 1.98 1.32 3 2 C3.375 5 3.375 5 3 8 C-0.20808915 10.1387261 -1.27698497 10.47730962 -5 10 C-5.66 9.01 -6.32 8.02 -7 7 C-6.67 6.34 -6.34 5.68 -6 5 C-4.02 5 -2.04 5 0 5 C0 3.35 0 1.7 0 0 Z " fill="#319989" transform="translate(20,63)"/>
<path d="M0 0 C0.33 0.66 0.66 1.32 1 2 C2.65 1.67 4.3 1.34 6 1 C6.33 1.66 6.66 2.32 7 3 C4.63286061 5.74089824 2.49398354 7.02493482 -1 8 C-4.3125 7.625 -4.3125 7.625 -7 7 C-7 6.01 -7 5.02 -7 4 C-3.535 3.505 -3.535 3.505 0 3 C0 2.01 0 1.02 0 0 Z " fill="#3DA598" transform="translate(36,63)"/>
<path d="M0 0 C0.33 0 0.66 0 1 0 C1.2756877 5.42185809 1.34110491 8.50235878 -2 13 C-2.99 14.485 -2.99 14.485 -4 16 C-6.625 16.6875 -6.625 16.6875 -9 17 C-10.0625 15.125 -10.0625 15.125 -11 13 C-10.67 12.34 -10.34 11.68 -10 11 C-7.66989091 10.32215008 -5.33640176 9.65583207 -3 9 C-0.23776722 6.23776722 -0.42143709 3.79293383 0 0 Z " fill="#33978D" transform="translate(39,50)"/>
<path d="M0 0 C0.66 0 1.32 0 2 0 C2.33 1.32 2.66 2.64 3 4 C3.66 3.01 4.32 2.02 5 1 C5.33 3.97 5.66 6.94 6 10 C5.34 10 4.68 10 4 10 C4.66 12.31 5.32 14.62 6 17 C2.49576768 13.96299866 1.06234473 11.51496509 0 7 C-0.07522969 4.66787973 -0.09325876 2.3314689 0 0 Z " fill="#34B0A8" transform="translate(52,65)"/>
<path d="M0 0 C0.22162329 1.62324086 0.42689803 3.248721 0.625 4.875 C0.74101562 5.77992187 0.85703125 6.68484375 0.9765625 7.6171875 C0.98429687 8.40351562 0.99203125 9.18984375 1 10 C0.34 10.66 -0.32 11.32 -1 12 C-1.99 12 -2.98 12 -4 12 C-4.08090971 10.37581255 -4.13914995 8.75048255 -4.1875 7.125 C-4.22230469 6.22007813 -4.25710937 5.31515625 -4.29296875 4.3828125 C-4.19628906 3.59648438 -4.09960938 2.81015625 -4 2 C-1 0 -1 0 0 0 Z " fill="#178175" transform="translate(26,39)"/>
<path d="M0 0 C0.33 0 0.66 0 1 0 C1 5.28 1 10.56 1 16 C0.34 14.68 -0.32 13.36 -1 12 C-1.33 11.67 -1.66 11.34 -2 11 C-2.66 12.32 -3.32 13.64 -4 15 C-4.22174933 13.54364629 -4.42698698 12.08477044 -4.625 10.625 C-4.74101562 9.81289063 -4.85703125 9.00078125 -4.9765625 8.1640625 C-4.98429687 7.44992188 -4.99203125 6.73578125 -5 6 C-4.34 5.34 -3.68 4.68 -3 4 C-3 5.32 -3 6.64 -3 8 C-2.67 7.34 -2.34 6.68 -2 6 C-1.34 6 -0.68 6 0 6 C0 4.02 0 2.04 0 0 Z " fill="#36887A" transform="translate(23,53)"/>
<path d="M0 0 C5.75 1.75 5.75 1.75 8 4 C5.6875 6.0625 5.6875 6.0625 3 8 C2.01 7.67 1.02 7.34 0 7 C0 6.34 0 5.68 0 5 C-0.66 5 -1.32 5 -2 5 C-1.34 3.35 -0.68 1.7 0 0 Z " fill="#24A59D" transform="translate(38,40)"/>
<path d="M0 0 C1.32 0.33 2.64 0.66 4 1 C3.71831703 2.95979427 3.42433283 4.91782378 3.125 6.875 C2.96257812 7.96554688 2.80015625 9.05609375 2.6328125 10.1796875 C2 13 2 13 0 15 C0.33 11.37 0.66 7.74 1 4 C0.34 4 -0.32 4 -1 4 C-1 4.99 -1 5.98 -1 7 C-1.66 6.67 -2.32 6.34 -3 6 C-2.01 4.02 -1.02 2.04 0 0 Z " fill="#43CDCC" transform="translate(85,35)"/>
<path d="M0 0 C2.05078125 0.03255208 4.1015625 0.06510417 6.15234375 0.09765625 C3.07234429 3.7699633 0.90408355 4.6656799 -3.84765625 5.09765625 C-2.72914438 0.14424653 -2.72914438 0.14424653 0 0 Z " fill="#2EC3BA" transform="translate(61.84765625,53.90234375)"/>
<path d="M0 0 C0.99 0 1.98 0 3 0 C3.22226864 1.76913824 3.42733873 3.54044371 3.625 5.3125 C3.74101563 6.29863281 3.85703125 7.28476563 3.9765625 8.30078125 C4 11 4 11 2 14 C0.66416101 9.15758367 -0.25328119 5.06562383 0 0 Z " fill="#2BEAEB" transform="translate(79,67)"/>
<path d="M0 0 C0.66 0 1.32 0 2 0 C2.125 7.625 2.125 7.625 1 11 C0.01 10.67 -0.98 10.34 -2 10 C-1.34 6.7 -0.68 3.4 0 0 Z " fill="#36EBF1" transform="translate(84,39)"/>
<path d="M0 0 C0.66 0.33 1.32 0.66 2 1 C2 4 2 7 2 10 C-0.5625 7.75 -0.5625 7.75 -3 5 C-2.9375 2.75 -2.9375 2.75 -2 1 C-1.34 0.67 -0.68 0.34 0 0 Z " fill="#2B8C81" transform="translate(32,45)"/>
<path d="M0 0 C1.32 0.33 2.64 0.66 4 1 C4 1.66 4 2.32 4 3 C5.65 3 7.3 3 9 3 C9 3.99 9 4.98 9 6 C6 6 6 6 3 5 C3 4.34 3 3.68 3 3 C2.34 3 1.68 3 1 3 C0.67 2.01 0.34 1.02 0 0 Z " fill="#35D1CD" transform="translate(62,75)"/>
<path d="M0 0 C0.763125 0.20625 1.52625 0.4125 2.3125 0.625 C1.74878586 3.89454202 0.81287734 5.45075883 -1.6875 7.625 C-2.3475 7.295 -3.0075 6.965 -3.6875 6.625 C-3.6875 5.965 -3.6875 5.305 -3.6875 4.625 C-2.6975 3.965 -1.7075 3.305 -0.6875 2.625 C-2.3375 2.295 -3.9875 1.965 -5.6875 1.625 C-2.6875 -0.375 -2.6875 -0.375 0 0 Z " fill="#3FB9AE" transform="translate(67.6875,52.375)"/>
<path d="M0 0 C0.33 0.66 0.66 1.32 1 2 C2.65 1.67 4.3 1.34 6 1 C6.33 1.66 6.66 2.32 7 3 C5.75 4.5625 5.75 4.5625 4 6 C1.8125 5.6875 1.8125 5.6875 0 5 C0 3.35 0 1.7 0 0 Z " fill="#33ACA0" transform="translate(36,63)"/>
<path d="M0 0 C1.2065625 0.0309375 1.2065625 0.0309375 2.4375 0.0625 C2.7675 1.3825 3.0975 2.7025 3.4375 4.0625 C1.0625 4.25 1.0625 4.25 -1.5625 4.0625 C-2.2225 3.0725 -2.8825 2.0825 -3.5625 1.0625 C-2.5625 0.0625 -2.5625 0.0625 0 0 Z " fill="#35C8C7" transform="translate(70.5625,71.9375)"/>
<path d="M0 0 C2 1 2 1 3.125 3.0625 C4.2583306 6.86725273 4.13434296 10.0368828 4 14 C3.01 14.495 3.01 14.495 2 15 C2 12.03 2 9.06 2 6 C1.34 6 0.68 6 0 6 C0 4.02 0 2.04 0 0 Z " fill="#2C938F" transform="translate(46,44)"/>
<path d="M0 0 C0.99 0.33 1.98 0.66 3 1 C3 3.64 3 6.28 3 9 C2.34 9 1.68 9 1 9 C-1.125 2.25 -1.125 2.25 0 0 Z " fill="#35B6A8" transform="translate(40,47)"/>
<path d="M0 0 C1.485 0.99 1.485 0.99 3 2 C3.6875 5.625 3.6875 5.625 4 9 C3.01 9 2.02 9 1 9 C0.67 6.03 0.34 3.06 0 0 Z " fill="#248B80" transform="translate(23,31)"/>
<path d="M0 0 C1.67542976 0.28604898 3.34385343 0.61781233 5 1 C4.38125 1.20625 3.7625 1.4125 3.125 1.625 C0.15346355 3.54775888 -0.13024659 5.66594527 -1 9 C-1.66 8.67 -2.32 8.34 -3 8 C-1.125 1.125 -1.125 1.125 0 0 Z " fill="#38887F" transform="translate(33,36)"/>
<path d="M0 0 C1.32 0 2.64 0 4 0 C3.67 1.32 3.34 2.64 3 4 C3.99 4.33 4.98 4.66 6 5 C3.625 5.1875 3.625 5.1875 1 5 C0.34 4.01 -0.32 3.02 -1 2 C-0.67 1.34 -0.34 0.68 0 0 Z " fill="#4C9489" transform="translate(14,68)"/>
<path d="M0 0 C0.99 0.66 1.98 1.32 3 2 C2.125 6.75 2.125 6.75 1 9 C0.01 8.67 -0.98 8.34 -2 8 C-1.67 7.236875 -1.34 6.47375 -1 5.6875 C0.17436686 3.00930865 0.17436686 3.00930865 0 0 Z " fill="#329C93" transform="translate(35,50)"/>
<path d="M0 0 C1.65 0.33 3.3 0.66 5 1 C4.649375 1.61875 4.29875 2.2375 3.9375 2.875 C3.4734375 3.926875 3.4734375 3.926875 3 5 C3.33 5.66 3.66 6.32 4 7 C2.0625 6.1875 2.0625 6.1875 0 5 C-0.33 4.01 -0.66 3.02 -1 2 C-0.67 1.34 -0.34 0.68 0 0 Z " fill="#3A8379" transform="translate(16,48)"/>
<path d="M0 0 C2.4375 0.75 2.4375 0.75 5 2 C5.8125 4.125 5.8125 4.125 6 6 C5.01 6 4.02 6 3 6 C0 2.66666667 0 2.66666667 0 0 Z " fill="#237667" transform="translate(18,29)"/>
<path d="M0 0 C3 1 3 1 5 4 C5 4.99 5 5.98 5 7 C3.68 6.67 2.36 6.34 1 6 C0.67 4.02 0.34 2.04 0 0 Z " fill="#31E6E5" transform="translate(77,54)"/>
<path d="M0 0 C0.33 0 0.66 0 1 0 C1 1.98 1 3.96 1 6 C0.34 6 -0.32 6 -1 6 C-1.33 6.99 -1.66 7.98 -2 9 C-3.33332095 6.3333581 -2.67102033 4.83319697 -2 2 C-1.34 2 -0.68 2 0 2 C0 1.34 0 0.68 0 0 Z " fill="#228C7B" transform="translate(22,53)"/>
<path d="M0 0 C0.33 0 0.66 0 1 0 C1 1.65 1 3.3 1 5 C-0.98 5.99 -0.98 5.99 -3 7 C-3 5.02 -3 3.04 -3 1 C-2.01 1.495 -2.01 1.495 -1 2 C-0.67 1.34 -0.34 0.68 0 0 Z " fill="#21B1A6" transform="translate(48,52)"/>
<path d="M0 0 C4.67461851 -0.32613618 7.16674383 0.29417212 11 3 C10.67 3.66 10.34 4.32 10 5 C7.525 4.01 7.525 4.01 5 3 C5 2.34 5 1.68 5 1 C3.35 1 1.7 1 0 1 C0 0.67 0 0.34 0 0 Z " fill="#2D978A" transform="translate(34,38)"/>
<path d="M0 0 C1.125 1.75 1.125 1.75 2 4 C1.125 6.25 1.125 6.25 0 8 C-0.33 8 -0.66 8 -1 8 C-1 6.35 -1 4.7 -1 3 C-1.66 2.67 -2.32 2.34 -3 2 C-2.01 2 -1.02 2 0 2 C0 1.34 0 0.68 0 0 Z " fill="#27C4C1" transform="translate(55,62)"/>
<path d="M0 0 C0.99 0.33 1.98 0.66 3 1 C3.1875 3.375 3.1875 3.375 3 6 C2.01 6.66 1.02 7.32 0 8 C0 5.36 0 2.72 0 0 Z " fill="#24796D" transform="translate(26,34)"/>
</svg>
