<?xml version="1.0" standalone="no"?>
<!DOCTYPE svg PUBLIC "-//W3C//DTD SVG 20010904//EN"
 "http://www.w3.org/TR/2001/REC-SVG-20010904/DTD/svg10.dtd">
<svg version="1.0" xmlns="http://www.w3.org/2000/svg"
 width="758.000000pt" height="179.000000pt" viewBox="0 0 758.000000 179.000000"
 preserveAspectRatio="xMidYMid meet">

<g transform="translate(0.000000,179.000000) scale(0.100000,-0.100000)"
fill="#ffffffff" stroke="none">
<path d="M150 1411 c-34 -33 -45 -68 -36 -114 14 -73 107 -118 174 -83 45 23
62 53 62 109 0 42 -5 54 -34 83 -30 30 -40 34 -86 34 -43 0 -56 -4 -80 -29z"/>
<path d="M3298 1411 c-30 -27 -33 -35 -33 -85 0 -49 4 -59 31 -87 42 -41 104
-49 152 -20 37 24 52 55 52 113 0 32 -7 47 -34 74 -30 30 -40 34 -85 34 -42 0
-56 -5 -83 -29z"/>
<path d="M2587 1413 c-4 -3 -7 -224 -7 -490 l0 -483 105 0 105 0 0 490 0 490
-98 0 c-54 0 -102 -3 -105 -7z"/>
<path d="M2930 930 l0 -490 105 0 105 0 -2 488 -3 487 -102 3 -103 3 0 -491z"/>
<path d="M6740 925 l0 -485 105 0 105 0 2 203 3 202 105 -202 105 -203 128 0
c70 0 127 3 127 6 0 4 -38 78 -85 165 -47 87 -85 161 -85 165 0 4 11 21 24 38
55 73 86 168 86 266 l0 50 -104 0 -103 0 -5 -69 c-8 -113 -60 -171 -152 -171
l-46 0 0 260 0 260 -105 0 -105 0 0 -485z"/>
<path d="M1322 993 l3 -308 29 -58 c36 -71 99 -131 174 -164 46 -21 74 -26
142 -27 l85 -1 3 98 3 98 -34 -6 c-43 -8 -115 11 -145 38 -42 39 -52 71 -52
167 l0 90 95 0 95 0 0 95 0 95 -95 0 -95 0 0 95 0 95 -106 0 -105 0 3 -307z"/>
<path d="M744 1131 c-95 -25 -186 -100 -227 -189 -20 -43 -22 -66 -25 -274
l-3 -228 105 0 106 0 0 201 c0 236 5 255 77 290 67 32 144 14 187 -44 19 -26
21 -44 24 -238 l3 -209 106 0 105 0 -4 218 c-3 193 -6 223 -25 270 -32 80 -84
136 -158 173 -55 27 -78 32 -152 35 -49 2 -102 0 -119 -5z"/>
<path d="M2073 1131 c-110 -29 -206 -110 -241 -205 -73 -194 -1 -381 177 -465
53 -25 63 -26 206 -25 83 1 164 6 180 11 l30 9 3 97 3 97 -43 -7 c-24 -4 -95
-8 -158 -8 -124 0 -165 13 -197 62 l-15 23 48 -15 c96 -29 241 -13 319 35 152
94 125 295 -50 370 -55 24 -205 36 -262 21z m166 -202 c41 -14 44 -55 5 -69
-50 -20 -204 -7 -204 16 0 43 130 77 199 53z"/>
<path d="M3791 1125 c-113 -32 -181 -109 -181 -207 0 -59 18 -104 56 -140 39
-36 87 -55 202 -78 53 -11 109 -25 125 -31 30 -13 36 -34 11 -43 -29 -11 -239
-5 -319 9 -44 8 -81 15 -82 15 -2 0 -3 -43 -3 -95 l0 -94 38 -11 c20 -6 102
-14 182 -17 168 -6 242 7 316 57 63 44 87 96 82 180 -3 54 -9 74 -30 102 -35
46 -121 82 -257 107 -109 20 -134 32 -112 54 17 17 216 14 304 -5 l67 -15 0
98 0 97 -52 12 c-89 19 -285 22 -347 5z"/>
<path d="M4579 1127 c-107 -30 -191 -106 -231 -206 -21 -53 -22 -72 -26 -408
l-4 -353 106 0 106 0 0 170 c0 107 4 170 10 170 6 0 10 -4 10 -8 0 -5 19 -19
43 -33 35 -20 55 -24 127 -24 71 0 94 4 141 26 141 66 221 220 199 380 -17
120 -90 218 -198 266 -69 30 -210 41 -283 20z m186 -196 c51 -23 70 -46 85
-100 32 -120 -61 -226 -183 -207 -90 15 -131 65 -131 162 0 84 31 132 99 153
47 14 87 12 130 -8z"/>
<path d="M5400 1131 c-113 -25 -212 -108 -251 -209 -32 -87 -30 -210 6 -291
33 -73 93 -132 173 -169 54 -26 64 -27 207 -26 83 1 164 6 180 11 l30 9 3 98
c3 98 3 99 -20 92 -51 -13 -244 -18 -285 -7 -46 13 -103 55 -91 67 5 4 25 2
47 -4 137 -42 335 20 387 120 20 38 20 138 0 175 -22 43 -76 90 -131 113 -55
24 -193 35 -255 21z m180 -206 c6 -3 10 -17 10 -31 0 -36 -38 -47 -139 -40
-46 3 -86 7 -88 10 -3 2 0 13 6 24 10 18 40 35 86 46 24 6 111 -1 125 -9z"/>
<path d="M6135 1131 c-56 -14 -121 -48 -159 -82 -147 -129 -152 -374 -10 -516
74 -75 128 -97 234 -98 75 0 90 3 132 28 26 15 54 37 62 49 18 25 18 25 37
-27 l15 -40 103 -3 104 -3 -7 23 c-23 81 -37 170 -45 291 -8 125 -11 143 -40
202 -58 117 -156 175 -306 181 -49 2 -103 0 -120 -5z m180 -202 c53 -26 70
-62 70 -149 0 -73 -2 -81 -28 -108 -75 -78 -222 -60 -267 32 -59 124 23 253
156 242 22 -2 53 -9 69 -17z"/>
<path d="M130 785 l0 -345 105 0 105 0 0 345 0 345 -105 0 -105 0 0 -345z"/>
<path d="M3280 785 l0 -345 105 0 105 0 0 345 0 345 -105 0 -105 0 0 -345z"/>
</g>
</svg>
